<svg xmlns="http://www.w3.org/2000/svg" viewBox="0 0 200 230" fill="none">
  <path d="M100 8L192 42V110C192 162 154 204 100 220C46 204 8 162 8 110V42L100 8Z" stroke="rgba(192,39,45,0.35)" stroke-width="1.5"/>
  <path d="M100 30L174 58V110C174 152 142 186 100 200C58 186 26 152 26 110V58L100 30Z" stroke="rgba(192,39,45,0.2)" stroke-width="1"/>
  <path d="M100 52L156 74V110C156 142 132 168 100 180C68 168 44 142 44 110V74L100 52Z" stroke="rgba(192,39,45,0.12)" stroke-width="1"/>
  <path d="M68 112L88 132L136 84" stroke="rgba(192,39,45,0.4)" stroke-width="3" stroke-linecap="round" stroke-linejoin="round"/>
</svg>
